<svg xmlns="http://www.w3.org/2000/svg" xmlns:xlink="http://www.w3.org/1999/xlink" width="290.725" height="103.427" viewBox="0 0 290.725 103.427">
  <defs>
    <clipPath id="clip-path">
      <rect id="Rectangle_669" data-name="Rectangle 669" width="280.695" height="103.427" fill="none"/>
    </clipPath>
  </defs>
  <g id="Group_3008" data-name="Group 3008" transform="translate(-0.726)">
    <rect id="Rectangle_668" data-name="Rectangle 668" width="279.258" height="0.654" transform="translate(0.726 68.433)" fill="#fff"/>
    <g id="Group_2994" data-name="Group 2994" transform="translate(10.756)">
      <g id="Group_2993" data-name="Group 2993" clip-path="url(#clip-path)">
        <path id="Path_4617" data-name="Path 4617" d="M68.461,193.993l-6.515-7.526H52.6v7.526H50.208V174.335h13.2c4.381,0,7.527,2.19,7.527,6.066,0,3.426-2.472,5.56-6.094,5.981l6.711,7.611Zm-5.223-9.717c3.173,0,5.279-1.208,5.279-3.875s-2.106-3.875-5.279-3.875H52.567v7.75Z" transform="translate(-26.253 -91.156)" fill="#fff"/>
        <path id="Path_4618" data-name="Path 4618" d="M148.382,191.8v2.19H129.37V174.335H148.1v2.19H131.729V182.9H145.6v2.19H131.729V191.8Z" transform="translate(-67.645 -91.156)" fill="#fff"/>
        <path id="Path_4619" data-name="Path 4619" d="M225.011,174.335v19.658h-2.078L206.421,177.34v16.653h-2.3V174.335h2.555l16.035,16.2v-16.2Z" transform="translate(-106.728 -91.156)" fill="#fff"/>
        <path id="Path_4620" data-name="Path 4620" d="M301.671,176.47h-9.3v17.523h-2.359V176.47H280.75v-2.134h20.921Z" transform="translate(-146.797 -91.156)" fill="#fff"/>
        <path id="Path_4621" data-name="Path 4621" d="M363.516,188.713H350.262l-2.865,5.279h-2.611L355.6,174.335h2.639l10.812,19.658h-2.668Zm-1.151-2.134L356.889,176.5l-5.476,10.082Z" transform="translate(-180.28 -91.156)" fill="#fff"/>
        <path id="Path_4622" data-name="Path 4622" d="M445.538,191.8v2.19H428.126V174.335h2.359V191.8Z" transform="translate(-223.857 -91.156)" fill="#fff"/>
        <path id="Path_4623" data-name="Path 4623" d="M514.495,187.646c0,3.623-3.679,6.29-10.082,6.29a17.285,17.285,0,0,1-11.485-4.044l1.657-1.769a14.2,14.2,0,0,0,9.969,3.622c4.746,0,7.526-1.488,7.526-3.931,0-2.387-2.892-2.976-8.2-3.426-5.251-.449-10.278-1.6-10.278-5.476,0-3.707,4.661-5.813,9.913-5.813a15.112,15.112,0,0,1,10.053,3.51l-1.854,1.573a11.514,11.514,0,0,0-8.087-2.892c-3.511-.028-7.611.955-7.611,3.538,0,2.443,3.707,2.949,8.341,3.314,5.981.478,10.137,1.629,10.137,5.5" transform="translate(-257.74 -90.509)" fill="#fff"/>
        <path id="Path_4624" data-name="Path 4624" d="M209.141,19.575a17.8,17.8,0,0,0-2.35-9.169,16.734,16.734,0,0,0-6.626-6.318,20.838,20.838,0,0,0-10.056-2.312H163.757V55.713H177.01v-18.8h13.1A20.838,20.838,0,0,0,200.164,34.6a16.636,16.636,0,0,0,8.976-15.026m-15.372,4.816q-1.965,1.965-6.049,1.965H177.01V12.717H187.8q4.006,0,5.972,1.927a6.516,6.516,0,0,1,1.965,4.854,6.641,6.641,0,0,1-1.965,4.893" transform="translate(-85.625 -0.929)" fill="#fff"/>
        <path id="Path_4625" data-name="Path 4625" d="M387.972,16.373a13.829,13.829,0,0,1,10.479-4.585,14.521,14.521,0,0,1,7.089,1.773,18.019,18.019,0,0,1,5.856,5.393l8.938-8.476a22.4,22.4,0,0,0-5.818-5.587,28.982,28.982,0,0,0-7.628-3.621A28.48,28.48,0,0,0,398.451,0a29.147,29.147,0,0,0-11.172,2.118,28.3,28.3,0,0,0-9.054,5.895,26.887,26.887,0,0,0-6.049,8.822,27.64,27.64,0,0,0-2.157,10.98,27.715,27.715,0,0,0,2.157,10.941,26.762,26.762,0,0,0,6.049,8.861,28.26,28.26,0,0,0,9.054,5.894,29.138,29.138,0,0,0,11.172,2.119A28.64,28.64,0,0,0,414.517,50.7a23.54,23.54,0,0,0,5.818-5.548L411.4,36.677a18.743,18.743,0,0,1-5.856,5.355,14.27,14.27,0,0,1-7.089,1.811,13.829,13.829,0,0,1-10.479-4.585,16.032,16.032,0,0,1-3.121-5.086,17.477,17.477,0,0,1-1.117-6.357,17.477,17.477,0,0,1,1.117-6.357,16.037,16.037,0,0,1,3.121-5.086" transform="translate(-193.474)" fill="#fff"/>
        <path id="Path_4626" data-name="Path 4626" d="M264.667,1.9l4.046,7.953L250.8,55.775h13.793l4.546-12.868h19.726l4.469,12.868h14.332L286.96,1.9Zm8.095,30.763,6.319-17.876,6.24,17.876Z" transform="translate(-131.138 -0.991)" fill="#fff"/>
        <path id="Path_4627" data-name="Path 4627" d="M5.176,55.83V10.838L.84,2.319H17.959V55.83Z" transform="translate(-0.439 -1.212)" fill="#91cd00"/>
        <path id="Path_4628" data-name="Path 4628" d="M17.274,2.295v53.02H4.983V10.51l-.053-.1L.8,2.295Zm.491-.491H0l4.491,8.823V55.806H17.765Z" transform="translate(0 -0.943)" fill="#1a1818"/>
        <path id="Path_4629" data-name="Path 4629" d="M532.577,1.829H481.722l5.746,11.278,13.028.05v42.61H513.75v-.05l.027-42.56h13.028Z" transform="translate(-251.881 -0.956)" fill="#fff"/>
        <path id="Path_4630" data-name="Path 4630" d="M62.844,27.765,49.813,1.856h-.188v25.21L62.69,51.978,79.963,19.205V55.833H92.455V1.856H75.8Z" transform="translate(-25.947 -0.97)" fill="#fff"/>
      </g>
    </g>
  </g>
</svg>
