<svg xmlns="http://www.w3.org/2000/svg" xmlns:xlink="http://www.w3.org/1999/xlink" width="9.389" height="13.607" viewBox="0 0 9.389 13.607">
  <defs>
    <clipPath id="clip-path">
      <rect id="Rectangle_215" data-name="Rectangle 215" width="9.389" height="13.607" fill="#8cc541"/>
    </clipPath>
  </defs>
  <g id="Group_2635" data-name="Group 2635" clip-path="url(#clip-path)">
    <path id="Path_4134" data-name="Path 4134" d="M7.89,1.256A4.5,4.5,0,0,0,5.449.059C5.306.035,5.16.027,5.015.011,4.992.008,4.97,0,4.947,0h-.5C4.33.012,4.213.023,4.1.038a4.591,4.591,0,0,0-2.629,1.25A4.584,4.584,0,0,0,.05,4.019,4.752,4.752,0,0,0,.356,6.5,20.645,20.645,0,0,0,2.012,9.647c.825,1.346,1.728,2.64,2.652,3.919.009.013.02.024.033.04.013-.016.024-.028.033-.04.955-1.322,1.886-2.661,2.736-4.054a22.348,22.348,0,0,0,1.32-2.422,6.237,6.237,0,0,0,.508-1.442,4.612,4.612,0,0,0-1.4-4.391M4.7,5.811a1.49,1.49,0,1,1,1.485-1.49A1.487,1.487,0,0,1,4.7,5.811" transform="translate(0 0.001)" fill="#8cc541"/>
  </g>
</svg>
