<svg xmlns="http://www.w3.org/2000/svg" xmlns:xlink="http://www.w3.org/1999/xlink" width="47.802" height="42.727" viewBox="0 0 47.802 42.727">
  <defs>
    <clipPath id="clip-path">
      <rect id="Rectangle_584" data-name="Rectangle 584" width="42.727" height="47.802" fill="none"/>
    </clipPath>
  </defs>
  <g id="Group_3025" data-name="Group 3025" transform="translate(-1425.248 -875.721)">
    <g id="Group_3011" data-name="Group 3011" transform="translate(1473.05 875.721) rotate(90)" opacity="0.653" style="isolation: isolate">
      <g id="Group_2927" data-name="Group 2927" clip-path="url(#clip-path)">
        <path id="Path_4297" data-name="Path 4297" d="M22.3,48.681a4.9,4.9,0,0,1-2.449-.656l-16.4-9.471A4.912,4.912,0,0,1,1,34.312V15.37a4.912,4.912,0,0,1,2.449-4.242l16.4-9.471a4.9,4.9,0,0,1,4.9,0l16.4,9.471A4.912,4.912,0,0,1,43.6,15.37V34.312a4.912,4.912,0,0,1-2.449,4.242l-16.4,9.471a4.9,4.9,0,0,1-2.449.656m0-45.634a4.391,4.391,0,0,0-2.193.587l-15.077,8.7a4.4,4.4,0,0,0-2.193,3.8V33.546a4.4,4.4,0,0,0,2.193,3.8l15.077,8.7a4.385,4.385,0,0,0,4.385,0l15.077-8.7a4.4,4.4,0,0,0,2.192-3.8V16.137a4.4,4.4,0,0,0-2.192-3.8L24.5,3.635A4.391,4.391,0,0,0,22.3,3.047" transform="translate(-0.939 -0.94)" fill="#fff"/>
        <path id="Path_4298" data-name="Path 4298" d="M21.363.121a4.834,4.834,0,0,1,2.419.648l16.4,9.471A4.837,4.837,0,0,1,42.6,14.429V33.371a4.837,4.837,0,0,1-2.419,4.189l-16.4,9.471a4.837,4.837,0,0,1-4.837,0L2.54,37.56A4.837,4.837,0,0,1,.122,33.371V14.429A4.837,4.837,0,0,1,2.54,10.24L18.945.769A4.834,4.834,0,0,1,21.363.121m0,45.634a4.442,4.442,0,0,0,2.223-.6l15.077-8.7a4.446,4.446,0,0,0,2.223-3.85V15.2a4.446,4.446,0,0,0-2.223-3.85l-15.077-8.7a4.446,4.446,0,0,0-4.446,0l-15.077,8.7A4.446,4.446,0,0,0,1.841,15.2V32.6a4.446,4.446,0,0,0,2.223,3.85l15.077,8.7a4.442,4.442,0,0,0,2.223.6M21.363,0a4.965,4.965,0,0,0-2.479.664l-16.4,9.471A4.973,4.973,0,0,0,0,14.429V33.371a4.973,4.973,0,0,0,2.479,4.295l16.4,9.471a4.959,4.959,0,0,0,4.959,0l16.4-9.471a4.973,4.973,0,0,0,2.479-4.295V14.429a4.973,4.973,0,0,0-2.479-4.295L23.843.663A4.965,4.965,0,0,0,21.363,0m0,45.634a4.33,4.33,0,0,1-2.162-.579l-15.077-8.7A4.336,4.336,0,0,1,1.963,32.6V15.2a4.336,4.336,0,0,1,2.162-3.745L19.2,2.746a4.324,4.324,0,0,1,4.324,0l15.077,8.7A4.336,4.336,0,0,1,40.764,15.2V32.6A4.336,4.336,0,0,1,38.6,36.349l-15.077,8.7a4.33,4.33,0,0,1-2.162.579" transform="translate(0 0.001)" fill="#fff"/>
        <path id="Path_4299" data-name="Path 4299" d="M93.384,75.834l-13.5-7.8a4.219,4.219,0,0,0-4.207,0l-13.5,7.8a4.219,4.219,0,0,0-2.1,3.644V95.071a4.219,4.219,0,0,0,2.1,3.644l13.5,7.8a4.219,4.219,0,0,0,4.207,0l13.5-7.8a4.219,4.219,0,0,0,2.1-3.644V79.478a4.219,4.219,0,0,0-2.1-3.644m1.653,19.237a3.767,3.767,0,0,1-1.878,3.253l-13.5,7.8a3.767,3.767,0,0,1-3.757,0l-13.5-7.8a3.767,3.767,0,0,1-1.878-3.253V79.478a3.767,3.767,0,0,1,1.878-3.253l13.5-7.8a3.767,3.767,0,0,1,3.757,0l13.5,7.8a3.767,3.767,0,0,1,1.878,3.253Z" transform="translate(-56.413 -63.373)" fill="#fff"/>
        <path id="Path_4300" data-name="Path 4300" d="M268.418,48.656l-.008,0v.008l-5.349,2.806v2.155l5.357-2.81,5.382,2.823V51.479l-5.349-2.806Z" transform="translate(-247.068 -45.694)" fill="#fff"/>
        <path id="Path_4301" data-name="Path 4301" d="M277.725,668.993l.007,0v-.007l4.751-2.492v-1.914l-4.757,2.5-4.78-2.507v1.914l4.751,2.492Z" transform="translate(-256.35 -624.167)" fill="#fff"/>
      </g>
    </g>
    <g id="Group_3019" data-name="Group 3019" transform="translate(1098.48 95.682)">
      <path id="Polygon_1" data-name="Polygon 1" d="M6.62,0l6.62,11.458H0Z" transform="translate(358.287 795.259) rotate(90)" fill="#8cc541"/>
    </g>
  </g>
</svg>
